<mxfile host="app.diagrams.net" agent="Mozilla/5.0 (X11; Linux x86_64; rv:137.0) Gecko/20100101 Firefox/137.0" version="26.2.13">
  <diagram name="Página-1" id="nc0Zv5TLXSGAJeCwMNtv">
    <mxGraphModel dx="2769" dy="1073" grid="1" gridSize="10" guides="1" tooltips="1" connect="1" arrows="1" fold="1" page="1" pageScale="1" pageWidth="827" pageHeight="1169" math="0" shadow="0">
      <root>
        <mxCell id="0" />
        <mxCell id="1" parent="0" />
        <mxCell id="ogkMOu5biMICqxZUdlQB-2" value="cliente" style="swimlane;fontStyle=0;childLayout=stackLayout;horizontal=1;startSize=30;horizontalStack=0;resizeParent=1;resizeParentMax=0;resizeLast=0;collapsible=1;marginBottom=0;whiteSpace=wrap;html=1;" vertex="1" parent="1">
          <mxGeometry x="260" y="30" width="140" height="220" as="geometry" />
        </mxCell>
        <mxCell id="ogkMOu5biMICqxZUdlQB-3" value="&lt;div&gt;- nomb:String&lt;/div&gt;&lt;div&gt;- correo:String&lt;/div&gt;&lt;div&gt;- documt: String&lt;/div&gt;&lt;div&gt;- cel: Int&lt;/div&gt;&lt;div&gt;- idReserva[]: Int&lt;/div&gt;&lt;div&gt;- noti[]: Noti&lt;/div&gt;" style="text;strokeColor=none;fillColor=none;align=left;verticalAlign=middle;spacingLeft=4;spacingRight=4;overflow=hidden;points=[[0,0.5],[1,0.5]];portConstraint=eastwest;rotatable=0;whiteSpace=wrap;html=1;" vertex="1" parent="ogkMOu5biMICqxZUdlQB-2">
          <mxGeometry y="30" width="140" height="110" as="geometry" />
        </mxCell>
        <mxCell id="ogkMOu5biMICqxZUdlQB-4" value="+ reservar() &lt;br&gt;+ verHorario()&lt;br&gt;+ verRutas()&lt;br&gt;+ hablarChat()&lt;br&gt;+ verRecomed()" style="text;strokeColor=default;fillColor=none;align=left;verticalAlign=middle;spacingLeft=4;spacingRight=4;overflow=hidden;points=[[0,0.5],[1,0.5]];portConstraint=eastwest;rotatable=0;whiteSpace=wrap;html=1;" vertex="1" parent="ogkMOu5biMICqxZUdlQB-2">
          <mxGeometry y="140" width="140" height="80" as="geometry" />
        </mxCell>
        <mxCell id="ogkMOu5biMICqxZUdlQB-6" value="boleto" style="swimlane;fontStyle=0;childLayout=stackLayout;horizontal=1;startSize=30;horizontalStack=0;resizeParent=1;resizeParentMax=0;resizeLast=0;collapsible=1;marginBottom=0;whiteSpace=wrap;html=1;" vertex="1" parent="1">
          <mxGeometry x="540" y="545" width="140" height="110" as="geometry" />
        </mxCell>
        <mxCell id="ogkMOu5biMICqxZUdlQB-7" value="&lt;div&gt;- usuario:cliente&lt;/div&gt;&lt;div&gt;- reser:reserva&lt;/div&gt;&lt;div&gt;- id: Int&lt;/div&gt;" style="text;strokeColor=none;fillColor=none;align=left;verticalAlign=middle;spacingLeft=4;spacingRight=4;overflow=hidden;points=[[0,0.5],[1,0.5]];portConstraint=eastwest;rotatable=0;whiteSpace=wrap;html=1;" vertex="1" parent="ogkMOu5biMICqxZUdlQB-6">
          <mxGeometry y="30" width="140" height="50" as="geometry" />
        </mxCell>
        <mxCell id="ogkMOu5biMICqxZUdlQB-8" value="+ imprimir()" style="text;strokeColor=default;fillColor=none;align=left;verticalAlign=middle;spacingLeft=4;spacingRight=4;overflow=hidden;points=[[0,0.5],[1,0.5]];portConstraint=eastwest;rotatable=0;whiteSpace=wrap;html=1;" vertex="1" parent="ogkMOu5biMICqxZUdlQB-6">
          <mxGeometry y="80" width="140" height="30" as="geometry" />
        </mxCell>
        <mxCell id="ogkMOu5biMICqxZUdlQB-9" value="Reserva" style="swimlane;fontStyle=0;childLayout=stackLayout;horizontal=1;startSize=30;horizontalStack=0;resizeParent=1;resizeParentMax=0;resizeLast=0;collapsible=1;marginBottom=0;whiteSpace=wrap;html=1;" vertex="1" parent="1">
          <mxGeometry x="470" y="170" width="160" height="260" as="geometry" />
        </mxCell>
        <mxCell id="ogkMOu5biMICqxZUdlQB-10" value="&lt;div&gt;- id:Int&lt;/div&gt;&lt;div&gt;- cliente:Cliente&lt;/div&gt;- viaje:Viaje&lt;br&gt;- fecha:Date&lt;br&gt;- metPago:MetPago&lt;br&gt;-&amp;nbsp; estado:String&lt;br&gt;- tren:Tren&lt;br&gt;- asiento:Asiento&lt;br&gt;&lt;div&gt;- comprar:Compra&lt;/div&gt;&lt;div&gt;- tiemLimit:Int&lt;/div&gt;" style="text;strokeColor=none;fillColor=none;align=left;verticalAlign=middle;spacingLeft=4;spacingRight=4;overflow=hidden;points=[[0,0.5],[1,0.5]];portConstraint=eastwest;rotatable=0;whiteSpace=wrap;html=1;" vertex="1" parent="ogkMOu5biMICqxZUdlQB-9">
          <mxGeometry y="30" width="160" height="160" as="geometry" />
        </mxCell>
        <mxCell id="ogkMOu5biMICqxZUdlQB-11" value="+ confirmarReserva()&lt;br&gt;+ expirarReserva()&lt;br&gt;+ cancelarReservación()&lt;br&gt;+ actualizarEstado()" style="text;strokeColor=default;fillColor=none;align=left;verticalAlign=middle;spacingLeft=4;spacingRight=4;overflow=hidden;points=[[0,0.5],[1,0.5]];portConstraint=eastwest;rotatable=0;whiteSpace=wrap;html=1;" vertex="1" parent="ogkMOu5biMICqxZUdlQB-9">
          <mxGeometry y="190" width="160" height="70" as="geometry" />
        </mxCell>
        <mxCell id="ogkMOu5biMICqxZUdlQB-12" value="Compra" style="swimlane;fontStyle=0;childLayout=stackLayout;horizontal=1;startSize=30;horizontalStack=0;resizeParent=1;resizeParentMax=0;resizeLast=0;collapsible=1;marginBottom=0;whiteSpace=wrap;html=1;" vertex="1" parent="1">
          <mxGeometry x="687" y="290" width="140" height="110" as="geometry" />
        </mxCell>
        <mxCell id="ogkMOu5biMICqxZUdlQB-13" value="&lt;div&gt;- costo:Float&lt;/div&gt;&lt;div&gt;- metPago: MetPago&lt;/div&gt;" style="text;strokeColor=none;fillColor=none;align=left;verticalAlign=middle;spacingLeft=4;spacingRight=4;overflow=hidden;points=[[0,0.5],[1,0.5]];portConstraint=eastwest;rotatable=0;whiteSpace=wrap;html=1;" vertex="1" parent="ogkMOu5biMICqxZUdlQB-12">
          <mxGeometry y="30" width="140" height="50" as="geometry" />
        </mxCell>
        <mxCell id="ogkMOu5biMICqxZUdlQB-14" value="+ comprarBoleto()" style="text;strokeColor=default;fillColor=none;align=left;verticalAlign=middle;spacingLeft=4;spacingRight=4;overflow=hidden;points=[[0,0.5],[1,0.5]];portConstraint=eastwest;rotatable=0;whiteSpace=wrap;html=1;" vertex="1" parent="ogkMOu5biMICqxZUdlQB-12">
          <mxGeometry y="80" width="140" height="30" as="geometry" />
        </mxCell>
        <mxCell id="ogkMOu5biMICqxZUdlQB-15" value="MetPago" style="swimlane;fontStyle=0;childLayout=stackLayout;horizontal=1;startSize=30;horizontalStack=0;resizeParent=1;resizeParentMax=0;resizeLast=0;collapsible=1;marginBottom=0;whiteSpace=wrap;html=1;" vertex="1" parent="1">
          <mxGeometry x="890" y="390" width="140" height="110" as="geometry" />
        </mxCell>
        <mxCell id="ogkMOu5biMICqxZUdlQB-16" value="- fechaTrans:Date" style="text;strokeColor=none;fillColor=none;align=left;verticalAlign=middle;spacingLeft=4;spacingRight=4;overflow=hidden;points=[[0,0.5],[1,0.5]];portConstraint=eastwest;rotatable=0;whiteSpace=wrap;html=1;" vertex="1" parent="ogkMOu5biMICqxZUdlQB-15">
          <mxGeometry y="30" width="140" height="50" as="geometry" />
        </mxCell>
        <mxCell id="ogkMOu5biMICqxZUdlQB-17" value="+ procesoDePago()" style="text;strokeColor=default;fillColor=none;align=left;verticalAlign=middle;spacingLeft=4;spacingRight=4;overflow=hidden;points=[[0,0.5],[1,0.5]];portConstraint=eastwest;rotatable=0;whiteSpace=wrap;html=1;" vertex="1" parent="ogkMOu5biMICqxZUdlQB-15">
          <mxGeometry y="80" width="140" height="30" as="geometry" />
        </mxCell>
        <mxCell id="ogkMOu5biMICqxZUdlQB-18" value="BCP" style="swimlane;fontStyle=0;childLayout=stackLayout;horizontal=1;startSize=30;horizontalStack=0;resizeParent=1;resizeParentMax=0;resizeLast=0;collapsible=1;marginBottom=0;whiteSpace=wrap;html=1;" vertex="1" parent="1">
          <mxGeometry x="770" y="570" width="140" height="60" as="geometry" />
        </mxCell>
        <mxCell id="ogkMOu5biMICqxZUdlQB-20" value="+ procesoDePago()" style="text;strokeColor=default;fillColor=none;align=left;verticalAlign=middle;spacingLeft=4;spacingRight=4;overflow=hidden;points=[[0,0.5],[1,0.5]];portConstraint=eastwest;rotatable=0;whiteSpace=wrap;html=1;" vertex="1" parent="ogkMOu5biMICqxZUdlQB-18">
          <mxGeometry y="30" width="140" height="30" as="geometry" />
        </mxCell>
        <mxCell id="ogkMOu5biMICqxZUdlQB-21" value="Paypal" style="swimlane;fontStyle=0;childLayout=stackLayout;horizontal=1;startSize=30;horizontalStack=0;resizeParent=1;resizeParentMax=0;resizeLast=0;collapsible=1;marginBottom=0;whiteSpace=wrap;html=1;" vertex="1" parent="1">
          <mxGeometry x="1010" y="570" width="140" height="60" as="geometry" />
        </mxCell>
        <mxCell id="ogkMOu5biMICqxZUdlQB-22" value="+ procesoDePago()" style="text;strokeColor=default;fillColor=none;align=left;verticalAlign=middle;spacingLeft=4;spacingRight=4;overflow=hidden;points=[[0,0.5],[1,0.5]];portConstraint=eastwest;rotatable=0;whiteSpace=wrap;html=1;" vertex="1" parent="ogkMOu5biMICqxZUdlQB-21">
          <mxGeometry y="30" width="140" height="30" as="geometry" />
        </mxCell>
        <mxCell id="ogkMOu5biMICqxZUdlQB-24" value="" style="endArrow=open;endFill=1;endSize=12;html=1;rounded=0;exitX=0.474;exitY=1.019;exitDx=0;exitDy=0;exitPerimeter=0;entryX=1.019;entryY=-0.01;entryDx=0;entryDy=0;entryPerimeter=0;" edge="1" parent="1" source="ogkMOu5biMICqxZUdlQB-17" target="ogkMOu5biMICqxZUdlQB-20">
          <mxGeometry width="160" relative="1" as="geometry">
            <mxPoint x="350" y="620" as="sourcePoint" />
            <mxPoint x="510" y="620" as="targetPoint" />
            <Array as="points">
              <mxPoint x="960" y="590" />
            </Array>
          </mxGeometry>
        </mxCell>
        <mxCell id="ogkMOu5biMICqxZUdlQB-25" value="" style="endArrow=open;endFill=1;endSize=12;html=1;rounded=0;exitX=0.469;exitY=1.078;exitDx=0;exitDy=0;exitPerimeter=0;entryX=-0.012;entryY=-0.033;entryDx=0;entryDy=0;entryPerimeter=0;" edge="1" parent="1" source="ogkMOu5biMICqxZUdlQB-17" target="ogkMOu5biMICqxZUdlQB-22">
          <mxGeometry width="160" relative="1" as="geometry">
            <mxPoint x="366" y="571" as="sourcePoint" />
            <mxPoint x="333" y="680" as="targetPoint" />
            <Array as="points">
              <mxPoint x="960" y="590" />
            </Array>
          </mxGeometry>
        </mxCell>
        <mxCell id="ogkMOu5biMICqxZUdlQB-26" value="Asiento" style="swimlane;fontStyle=0;childLayout=stackLayout;horizontal=1;startSize=30;horizontalStack=0;resizeParent=1;resizeParentMax=0;resizeLast=0;collapsible=1;marginBottom=0;whiteSpace=wrap;html=1;" vertex="1" parent="1">
          <mxGeometry x="370" y="520" width="140" height="100" as="geometry" />
        </mxCell>
        <mxCell id="ogkMOu5biMICqxZUdlQB-27" value="&lt;div&gt;- num:Int&lt;/div&gt;&lt;div&gt;- class:String&lt;/div&gt;&lt;div&gt;- clasAsient:String&lt;/div&gt;" style="text;strokeColor=none;fillColor=none;align=left;verticalAlign=middle;spacingLeft=4;spacingRight=4;overflow=hidden;points=[[0,0.5],[1,0.5]];portConstraint=eastwest;rotatable=0;whiteSpace=wrap;html=1;" vertex="1" parent="ogkMOu5biMICqxZUdlQB-26">
          <mxGeometry y="30" width="140" height="70" as="geometry" />
        </mxCell>
        <mxCell id="ogkMOu5biMICqxZUdlQB-29" value="Ruta" style="swimlane;fontStyle=0;childLayout=stackLayout;horizontal=1;startSize=30;horizontalStack=0;resizeParent=1;resizeParentMax=0;resizeLast=0;collapsible=1;marginBottom=0;whiteSpace=wrap;html=1;" vertex="1" parent="1">
          <mxGeometry x="80" y="490" width="140" height="110" as="geometry" />
        </mxCell>
        <mxCell id="ogkMOu5biMICqxZUdlQB-30" value="&lt;div&gt;- destino:String&lt;/div&gt;&lt;div&gt;- origen:String&lt;/div&gt;" style="text;strokeColor=none;fillColor=none;align=left;verticalAlign=middle;spacingLeft=4;spacingRight=4;overflow=hidden;points=[[0,0.5],[1,0.5]];portConstraint=eastwest;rotatable=0;whiteSpace=wrap;html=1;" vertex="1" parent="ogkMOu5biMICqxZUdlQB-29">
          <mxGeometry y="30" width="140" height="50" as="geometry" />
        </mxCell>
        <mxCell id="ogkMOu5biMICqxZUdlQB-31" value="+ mostrarRuta()" style="text;strokeColor=default;fillColor=none;align=left;verticalAlign=middle;spacingLeft=4;spacingRight=4;overflow=hidden;points=[[0,0.5],[1,0.5]];portConstraint=eastwest;rotatable=0;whiteSpace=wrap;html=1;" vertex="1" parent="ogkMOu5biMICqxZUdlQB-29">
          <mxGeometry y="80" width="140" height="30" as="geometry" />
        </mxCell>
        <mxCell id="ogkMOu5biMICqxZUdlQB-32" value="Tren" style="swimlane;fontStyle=0;childLayout=stackLayout;horizontal=1;startSize=30;horizontalStack=0;resizeParent=1;resizeParentMax=0;resizeLast=0;collapsible=1;marginBottom=0;whiteSpace=wrap;html=1;" vertex="1" parent="1">
          <mxGeometry x="260" y="320" width="140" height="140" as="geometry" />
        </mxCell>
        <mxCell id="ogkMOu5biMICqxZUdlQB-33" value="&lt;div&gt;- nomb:String&lt;/div&gt;&lt;div&gt;- horaS: Dato&lt;/div&gt;&lt;div&gt;- asientos[]:Asiento&lt;/div&gt;&lt;div&gt;-capac: Int&lt;/div&gt;&lt;div&gt;-ruta:Ruta&lt;/div&gt;&lt;div&gt;&lt;br&gt;&lt;/div&gt;" style="text;strokeColor=none;fillColor=none;align=left;verticalAlign=middle;spacingLeft=4;spacingRight=4;overflow=hidden;points=[[0,0.5],[1,0.5]];portConstraint=eastwest;rotatable=0;whiteSpace=wrap;html=1;" vertex="1" parent="ogkMOu5biMICqxZUdlQB-32">
          <mxGeometry y="30" width="140" height="80" as="geometry" />
        </mxCell>
        <mxCell id="ogkMOu5biMICqxZUdlQB-34" value="+&amp;nbsp;&lt;code data-end=&quot;497&quot; data-start=&quot;486&quot;&gt;actDispon&lt;/code&gt;()" style="text;strokeColor=default;fillColor=none;align=left;verticalAlign=middle;spacingLeft=4;spacingRight=4;overflow=hidden;points=[[0,0.5],[1,0.5]];portConstraint=eastwest;rotatable=0;whiteSpace=wrap;html=1;" vertex="1" parent="ogkMOu5biMICqxZUdlQB-32">
          <mxGeometry y="110" width="140" height="30" as="geometry" />
        </mxCell>
        <mxCell id="ogkMOu5biMICqxZUdlQB-35" value="Chat" style="swimlane;fontStyle=0;childLayout=stackLayout;horizontal=1;startSize=30;horizontalStack=0;resizeParent=1;resizeParentMax=0;resizeLast=0;collapsible=1;marginBottom=0;whiteSpace=wrap;html=1;" vertex="1" parent="1">
          <mxGeometry x="-170" y="300" width="140" height="170" as="geometry" />
        </mxCell>
        <mxCell id="ogkMOu5biMICqxZUdlQB-36" value="-preguntas[]:String&lt;br&gt;-historial[]:String" style="text;strokeColor=none;fillColor=none;align=left;verticalAlign=middle;spacingLeft=4;spacingRight=4;overflow=hidden;points=[[0,0.5],[1,0.5]];portConstraint=eastwest;rotatable=0;whiteSpace=wrap;html=1;" vertex="1" parent="ogkMOu5biMICqxZUdlQB-35">
          <mxGeometry y="30" width="140" height="80" as="geometry" />
        </mxCell>
        <mxCell id="ogkMOu5biMICqxZUdlQB-37" value="+mostrarOp()&lt;br&gt;+MostrarRes()&lt;br&gt;+SeleccionarPreg()" style="text;strokeColor=default;fillColor=none;align=left;verticalAlign=middle;spacingLeft=4;spacingRight=4;overflow=hidden;points=[[0,0.5],[1,0.5]];portConstraint=eastwest;rotatable=0;whiteSpace=wrap;html=1;" vertex="1" parent="ogkMOu5biMICqxZUdlQB-35">
          <mxGeometry y="110" width="140" height="60" as="geometry" />
        </mxCell>
        <mxCell id="ogkMOu5biMICqxZUdlQB-38" value="Soporte" style="swimlane;fontStyle=0;childLayout=stackLayout;horizontal=1;startSize=30;horizontalStack=0;resizeParent=1;resizeParentMax=0;resizeLast=0;collapsible=1;marginBottom=0;whiteSpace=wrap;html=1;" vertex="1" parent="1">
          <mxGeometry y="170" width="140" height="70" as="geometry" />
        </mxCell>
        <mxCell id="ogkMOu5biMICqxZUdlQB-39" value="chat:ChatBox&lt;br&gt;numSoport:Int" style="text;strokeColor=none;fillColor=none;align=left;verticalAlign=middle;spacingLeft=4;spacingRight=4;overflow=hidden;points=[[0,0.5],[1,0.5]];portConstraint=eastwest;rotatable=0;whiteSpace=wrap;html=1;" vertex="1" parent="ogkMOu5biMICqxZUdlQB-38">
          <mxGeometry y="30" width="140" height="40" as="geometry" />
        </mxCell>
        <mxCell id="ogkMOu5biMICqxZUdlQB-41" value="Viaje" style="swimlane;fontStyle=0;childLayout=stackLayout;horizontal=1;startSize=30;horizontalStack=0;resizeParent=1;resizeParentMax=0;resizeLast=0;collapsible=1;marginBottom=0;whiteSpace=wrap;html=1;" vertex="1" parent="1">
          <mxGeometry x="20" y="280" width="140" height="70" as="geometry" />
        </mxCell>
        <mxCell id="ogkMOu5biMICqxZUdlQB-42" value="tren:Tren" style="text;strokeColor=none;fillColor=none;align=left;verticalAlign=middle;spacingLeft=4;spacingRight=4;overflow=hidden;points=[[0,0.5],[1,0.5]];portConstraint=eastwest;rotatable=0;whiteSpace=wrap;html=1;" vertex="1" parent="ogkMOu5biMICqxZUdlQB-41">
          <mxGeometry y="30" width="140" height="40" as="geometry" />
        </mxCell>
        <mxCell id="ogkMOu5biMICqxZUdlQB-45" value="Noti" style="swimlane;fontStyle=0;childLayout=stackLayout;horizontal=1;startSize=30;horizontalStack=0;resizeParent=1;resizeParentMax=0;resizeLast=0;collapsible=1;marginBottom=0;whiteSpace=wrap;html=1;" vertex="1" parent="1">
          <mxGeometry x="160" y="710" width="140" height="170" as="geometry" />
        </mxCell>
        <mxCell id="ogkMOu5biMICqxZUdlQB-46" value="-content: String&lt;br&gt;- fecha:Date&lt;br&gt;-Destint:Cliente" style="text;strokeColor=none;fillColor=none;align=left;verticalAlign=middle;spacingLeft=4;spacingRight=4;overflow=hidden;points=[[0,0.5],[1,0.5]];portConstraint=eastwest;rotatable=0;whiteSpace=wrap;html=1;" vertex="1" parent="ogkMOu5biMICqxZUdlQB-45">
          <mxGeometry y="30" width="140" height="80" as="geometry" />
        </mxCell>
        <mxCell id="ogkMOu5biMICqxZUdlQB-47" value="+Enviar()&lt;br&gt;+Responder()&lt;br&gt;+Record()" style="text;strokeColor=default;fillColor=none;align=left;verticalAlign=middle;spacingLeft=4;spacingRight=4;overflow=hidden;points=[[0,0.5],[1,0.5]];portConstraint=eastwest;rotatable=0;whiteSpace=wrap;html=1;" vertex="1" parent="ogkMOu5biMICqxZUdlQB-45">
          <mxGeometry y="110" width="140" height="60" as="geometry" />
        </mxCell>
        <mxCell id="ogkMOu5biMICqxZUdlQB-48" value="" style="endArrow=none;html=1;rounded=0;entryX=0.5;entryY=0;entryDx=0;entryDy=0;exitX=0.996;exitY=0.298;exitDx=0;exitDy=0;exitPerimeter=0;" edge="1" parent="1" source="ogkMOu5biMICqxZUdlQB-3" target="ogkMOu5biMICqxZUdlQB-9">
          <mxGeometry width="50" height="50" relative="1" as="geometry">
            <mxPoint x="420" y="210" as="sourcePoint" />
            <mxPoint x="470" y="160" as="targetPoint" />
            <Array as="points">
              <mxPoint x="550" y="90" />
            </Array>
          </mxGeometry>
        </mxCell>
        <mxCell id="ogkMOu5biMICqxZUdlQB-51" value="" style="endArrow=diamondThin;endFill=1;endSize=24;html=1;rounded=0;entryX=1.005;entryY=0.134;entryDx=0;entryDy=0;entryPerimeter=0;exitX=0.5;exitY=0;exitDx=0;exitDy=0;" edge="1" parent="1" source="ogkMOu5biMICqxZUdlQB-12" target="ogkMOu5biMICqxZUdlQB-10">
          <mxGeometry width="160" relative="1" as="geometry">
            <mxPoint x="540" y="340" as="sourcePoint" />
            <mxPoint x="700" y="340" as="targetPoint" />
            <Array as="points">
              <mxPoint x="757" y="221" />
            </Array>
          </mxGeometry>
        </mxCell>
        <mxCell id="ogkMOu5biMICqxZUdlQB-53" value="" style="endArrow=none;html=1;rounded=0;entryX=0.5;entryY=0;entryDx=0;entryDy=0;exitX=1;exitY=0.5;exitDx=0;exitDy=0;" edge="1" parent="1" source="ogkMOu5biMICqxZUdlQB-13" target="ogkMOu5biMICqxZUdlQB-15">
          <mxGeometry width="50" height="50" relative="1" as="geometry">
            <mxPoint x="940" y="370" as="sourcePoint" />
            <mxPoint x="990" y="320" as="targetPoint" />
            <Array as="points">
              <mxPoint x="960" y="345" />
            </Array>
          </mxGeometry>
        </mxCell>
        <mxCell id="ogkMOu5biMICqxZUdlQB-54" value="" style="endArrow=diamondThin;endFill=1;endSize=24;html=1;rounded=0;exitX=0.5;exitY=0;exitDx=0;exitDy=0;entryX=0.552;entryY=1.026;entryDx=0;entryDy=0;entryPerimeter=0;" edge="1" parent="1" source="ogkMOu5biMICqxZUdlQB-6" target="ogkMOu5biMICqxZUdlQB-11">
          <mxGeometry width="160" relative="1" as="geometry">
            <mxPoint x="580" y="420" as="sourcePoint" />
            <mxPoint x="520" y="480" as="targetPoint" />
            <Array as="points">
              <mxPoint x="570" y="510" />
            </Array>
          </mxGeometry>
        </mxCell>
        <mxCell id="ogkMOu5biMICqxZUdlQB-55" value="" style="endArrow=diamondThin;endFill=1;endSize=24;html=1;rounded=0;exitX=0.437;exitY=0.956;exitDx=0;exitDy=0;entryX=0;entryY=0.5;entryDx=0;entryDy=0;exitPerimeter=0;" edge="1" parent="1" source="ogkMOu5biMICqxZUdlQB-34" target="ogkMOu5biMICqxZUdlQB-27">
          <mxGeometry width="160" relative="1" as="geometry">
            <mxPoint x="316" y="603" as="sourcePoint" />
            <mxPoint x="264" y="490" as="targetPoint" />
            <Array as="points">
              <mxPoint x="320" y="590" />
            </Array>
          </mxGeometry>
        </mxCell>
        <mxCell id="ogkMOu5biMICqxZUdlQB-56" value="" style="endArrow=none;html=1;rounded=0;entryX=0;entryY=0.5;entryDx=0;entryDy=0;exitX=0.5;exitY=0;exitDx=0;exitDy=0;" edge="1" parent="1" source="ogkMOu5biMICqxZUdlQB-29" target="ogkMOu5biMICqxZUdlQB-33">
          <mxGeometry width="50" height="50" relative="1" as="geometry">
            <mxPoint x="140" y="460" as="sourcePoint" />
            <mxPoint x="190" y="410" as="targetPoint" />
            <Array as="points">
              <mxPoint x="150" y="390" />
            </Array>
          </mxGeometry>
        </mxCell>
        <mxCell id="ogkMOu5biMICqxZUdlQB-57" value="" style="endArrow=none;html=1;rounded=0;entryX=0;entryY=0.437;entryDx=0;entryDy=0;exitX=0.429;exitY=0;exitDx=0;exitDy=0;entryPerimeter=0;exitPerimeter=0;" edge="1" parent="1" source="ogkMOu5biMICqxZUdlQB-32" target="ogkMOu5biMICqxZUdlQB-10">
          <mxGeometry width="50" height="50" relative="1" as="geometry">
            <mxPoint x="160" y="500" as="sourcePoint" />
            <mxPoint x="270" y="400" as="targetPoint" />
            <Array as="points">
              <mxPoint x="320" y="270" />
            </Array>
          </mxGeometry>
        </mxCell>
        <mxCell id="ogkMOu5biMICqxZUdlQB-59" value="" style="endArrow=block;dashed=1;endFill=0;endSize=12;html=1;rounded=0;entryX=0;entryY=0.182;entryDx=0;entryDy=0;entryPerimeter=0;exitX=0.5;exitY=0;exitDx=0;exitDy=0;" edge="1" parent="1" source="ogkMOu5biMICqxZUdlQB-38" target="ogkMOu5biMICqxZUdlQB-3">
          <mxGeometry width="160" relative="1" as="geometry">
            <mxPoint x="10" y="90" as="sourcePoint" />
            <mxPoint x="170" y="90" as="targetPoint" />
            <Array as="points">
              <mxPoint x="70" y="80" />
            </Array>
          </mxGeometry>
        </mxCell>
        <mxCell id="ogkMOu5biMICqxZUdlQB-63" value="" style="endArrow=diamondThin;endFill=1;endSize=24;html=1;rounded=0;entryX=0;entryY=0.5;entryDx=0;entryDy=0;exitX=0.5;exitY=0;exitDx=0;exitDy=0;" edge="1" parent="1" source="ogkMOu5biMICqxZUdlQB-35" target="ogkMOu5biMICqxZUdlQB-39">
          <mxGeometry width="160" relative="1" as="geometry">
            <mxPoint x="60" y="260" as="sourcePoint" />
            <mxPoint x="220" y="260" as="targetPoint" />
            <Array as="points">
              <mxPoint x="-100" y="220" />
            </Array>
          </mxGeometry>
        </mxCell>
      </root>
    </mxGraphModel>
  </diagram>
</mxfile>
